<mxfile host="app.diagrams.net" modified="2021-02-13T18:21:37.979Z" agent="5.0 (Windows NT 10.0; Win64; x64) AppleWebKit/537.36 (KHTML, like Gecko) Chrome/88.0.4324.150 Safari/537.36" etag="InC3zXHoLuKTaXqCwIgd" version="14.3.1" type="github">
  <diagram id="iHVpTHhcVD1JC7oqcurt" name="Page-1">
    <mxGraphModel dx="1038" dy="491" grid="1" gridSize="10" guides="1" tooltips="1" connect="1" arrows="1" fold="1" page="1" pageScale="1" pageWidth="850" pageHeight="1100" math="0" shadow="0">
      <root>
        <mxCell id="0" />
        <mxCell id="1" parent="0" />
        <mxCell id="0DyO54acJOOGTnfKubi6-8" value="" style="edgeStyle=orthogonalEdgeStyle;rounded=0;orthogonalLoop=1;jettySize=auto;html=1;" edge="1" parent="1" source="0DyO54acJOOGTnfKubi6-6" target="0DyO54acJOOGTnfKubi6-7">
          <mxGeometry relative="1" as="geometry" />
        </mxCell>
        <mxCell id="0DyO54acJOOGTnfKubi6-10" value="" style="edgeStyle=orthogonalEdgeStyle;rounded=0;orthogonalLoop=1;jettySize=auto;html=1;" edge="1" parent="1" source="0DyO54acJOOGTnfKubi6-6" target="0DyO54acJOOGTnfKubi6-9">
          <mxGeometry relative="1" as="geometry" />
        </mxCell>
        <mxCell id="0DyO54acJOOGTnfKubi6-6" value="&lt;font size=&quot;1&quot;&gt;&lt;b style=&quot;font-size: 17px&quot;&gt;APP&lt;/b&gt;&lt;/font&gt;" style="rounded=0;whiteSpace=wrap;html=1;" vertex="1" parent="1">
          <mxGeometry x="350" width="120" height="60" as="geometry" />
        </mxCell>
        <mxCell id="0DyO54acJOOGTnfKubi6-7" value="&lt;b&gt;&lt;font style=&quot;font-size: 17px&quot;&gt;NAVBAR&lt;/font&gt;&lt;/b&gt;" style="rounded=0;whiteSpace=wrap;html=1;" vertex="1" parent="1">
          <mxGeometry x="150" y="40" width="120" height="60" as="geometry" />
        </mxCell>
        <mxCell id="0DyO54acJOOGTnfKubi6-9" value="&lt;font size=&quot;1&quot;&gt;&lt;b style=&quot;font-size: 17px&quot;&gt;HEADER&lt;/b&gt;&lt;/font&gt;" style="rounded=0;whiteSpace=wrap;html=1;" vertex="1" parent="1">
          <mxGeometry x="550" y="40" width="120" height="60" as="geometry" />
        </mxCell>
        <mxCell id="0DyO54acJOOGTnfKubi6-17" value="" style="edgeStyle=orthogonalEdgeStyle;rounded=0;orthogonalLoop=1;jettySize=auto;html=1;" edge="1" parent="1" source="0DyO54acJOOGTnfKubi6-11" target="0DyO54acJOOGTnfKubi6-16">
          <mxGeometry relative="1" as="geometry" />
        </mxCell>
        <mxCell id="0DyO54acJOOGTnfKubi6-11" value="&lt;font size=&quot;1&quot;&gt;&lt;b style=&quot;font-size: 17px&quot;&gt;PROFILE&lt;/b&gt;&lt;/font&gt;" style="rounded=0;whiteSpace=wrap;html=1;" vertex="1" parent="1">
          <mxGeometry x="250" y="140" width="120" height="60" as="geometry" />
        </mxCell>
        <mxCell id="0DyO54acJOOGTnfKubi6-13" value="&lt;b&gt;&lt;font style=&quot;font-size: 17px&quot;&gt;DIALOGS&lt;/font&gt;&lt;/b&gt;" style="rounded=0;whiteSpace=wrap;html=1;" vertex="1" parent="1">
          <mxGeometry x="460" y="140" width="120" height="60" as="geometry" />
        </mxCell>
        <mxCell id="0DyO54acJOOGTnfKubi6-15" value="" style="endArrow=classic;html=1;entryX=0.5;entryY=0;entryDx=0;entryDy=0;exitX=1;exitY=1;exitDx=0;exitDy=0;" edge="1" parent="1" source="0DyO54acJOOGTnfKubi6-6" target="0DyO54acJOOGTnfKubi6-13">
          <mxGeometry width="50" height="50" relative="1" as="geometry">
            <mxPoint x="480" y="100" as="sourcePoint" />
            <mxPoint x="450" y="230" as="targetPoint" />
          </mxGeometry>
        </mxCell>
        <mxCell id="0DyO54acJOOGTnfKubi6-22" value="" style="edgeStyle=orthogonalEdgeStyle;rounded=0;orthogonalLoop=1;jettySize=auto;html=1;" edge="1" parent="1" source="0DyO54acJOOGTnfKubi6-16" target="0DyO54acJOOGTnfKubi6-21">
          <mxGeometry relative="1" as="geometry" />
        </mxCell>
        <mxCell id="0DyO54acJOOGTnfKubi6-16" value="&lt;font size=&quot;1&quot;&gt;&lt;b style=&quot;font-size: 17px&quot;&gt;POSTS&lt;/b&gt;&lt;/font&gt;" style="rounded=0;whiteSpace=wrap;html=1;" vertex="1" parent="1">
          <mxGeometry x="250" y="230" width="120" height="60" as="geometry" />
        </mxCell>
        <mxCell id="0DyO54acJOOGTnfKubi6-18" style="edgeStyle=orthogonalEdgeStyle;rounded=0;orthogonalLoop=1;jettySize=auto;html=1;exitX=0.5;exitY=1;exitDx=0;exitDy=0;" edge="1" parent="1" source="0DyO54acJOOGTnfKubi6-16" target="0DyO54acJOOGTnfKubi6-16">
          <mxGeometry relative="1" as="geometry" />
        </mxCell>
        <mxCell id="0DyO54acJOOGTnfKubi6-24" value="" style="edgeStyle=orthogonalEdgeStyle;rounded=0;orthogonalLoop=1;jettySize=auto;html=1;" edge="1" parent="1" source="0DyO54acJOOGTnfKubi6-21" target="0DyO54acJOOGTnfKubi6-23">
          <mxGeometry relative="1" as="geometry" />
        </mxCell>
        <mxCell id="0DyO54acJOOGTnfKubi6-21" value="&lt;font size=&quot;1&quot;&gt;&lt;b style=&quot;font-size: 17px&quot;&gt;POST&lt;/b&gt;&lt;/font&gt;" style="rounded=0;whiteSpace=wrap;html=1;" vertex="1" parent="1">
          <mxGeometry x="250" y="320" width="120" height="60" as="geometry" />
        </mxCell>
        <mxCell id="0DyO54acJOOGTnfKubi6-23" value="&lt;font size=&quot;1&quot;&gt;&lt;b style=&quot;font-size: 17px&quot;&gt;ProfilePhoto&lt;/b&gt;&lt;/font&gt;" style="rounded=0;whiteSpace=wrap;html=1;" vertex="1" parent="1">
          <mxGeometry x="250" y="410" width="120" height="60" as="geometry" />
        </mxCell>
        <mxCell id="0DyO54acJOOGTnfKubi6-26" value="" style="endArrow=classic;html=1;exitX=0;exitY=1;exitDx=0;exitDy=0;entryX=0.5;entryY=0;entryDx=0;entryDy=0;" edge="1" parent="1" source="0DyO54acJOOGTnfKubi6-6" target="0DyO54acJOOGTnfKubi6-11">
          <mxGeometry width="50" height="50" relative="1" as="geometry">
            <mxPoint x="400" y="280" as="sourcePoint" />
            <mxPoint x="450" y="230" as="targetPoint" />
          </mxGeometry>
        </mxCell>
      </root>
    </mxGraphModel>
  </diagram>
</mxfile>
